<svg width="24" height="24" viewBox="0 0 24 24" fill="none" xmlns="http://www.w3.org/2000/svg">
<path d="M12.074 3.25V15.728M6.19 10.465L11.012 15.287C11.305 15.58 11.689 15.727 12.072 15.727M17.955 10.465L13.133 15.287C12.84 15.58 12.456 15.727 12.073 15.727M20.75 16.515V17.45C20.75 17.8834 20.6646 18.3125 20.4988 18.7129C20.333 19.1132 20.0899 19.477 19.7835 19.7835C19.477 20.0899 19.1132 20.333 18.7129 20.4988C18.3125 20.6646 17.8834 20.75 17.45 20.75H6.55C6.11664 20.75 5.68752 20.6646 5.28714 20.4988C4.88677 20.333 4.52298 20.0899 4.21655 19.7835C3.91011 19.477 3.66704 19.1132 3.5012 18.7129C3.33536 18.3125 3.25 17.8834 3.25 17.45V16.515" stroke="#080D0F" stroke-width="1.5" stroke-linecap="round" stroke-linejoin="round"></path>
</svg>